# xmcd
#
# Track frame offsets:
#	150
#	14165
#	27105
#	42158
#	58335
#	72318
#	86240
#	103215
#	118718
#	139685
#	157453
#	173880
#	190323
#	209888
#	226910
#	246550
#	262810
#	280910
#	298145
#
# Disc length: 4224 seconds
#
# Revision: 1
# Processed by: cddbd v1.4PL0 Copyright (c) Steve Scherf et al.
# Submitted via: audiograbber 1.82.02
#
DISCID=36107e13
DTITLE=Top Hits Country RC-29 - RC-29
DYEAR=1995
DGENRE=Country
TTITLE0=Brooks and Dunn - Little Miis Honky Tonk
TTITLE1=Tim McGraw - Refried Dreams
TTITLE2=Trisha Yearwood - Thinkin' About You
TTITLE3=Joe Diffie - So Help Me Girl
TTITLE4=Mark Chestnutt - Gonna Get A Life
TTITLE5=David Ball - Look What Followed Me Home
TTITLE6=John Michael Montgomery - I Can Love You Like That
TTITLE7=Randy Travis - The Box
TTITLE8=Alan Jackson - Song For life
TTITLE9=Reba McEntire - The Heart Is A Lonely Hunter 
TTITLE10=Diamond Rio - Bubba Hyde
TTITLE11=Clay Walker - This Woman And This Man 
TTITLE12=Vince Vill - Which Bridge To Cross 
TTITLE13=George Ducas - Lipstrick Promises
TTITLE14=Tracy Byrd - The Keeper Of The Stars
TTITLE15=Alabama - Give Me One More Shot
TTITLE16=Little Texas - Amy's Back In Austin
TTITLE17=Blackhawk  - Down In Flames
TTITLE18=Shenandoah W/ Alison Krauss - Somewhere In The Vicinity Of The Heart 
EXTD=
EXTT0=
EXTT1=
EXTT2=
EXTT3=
EXTT4=
EXTT5=
EXTT6=
EXTT7=
EXTT8=
EXTT9=
EXTT10=
EXTT11=
EXTT12=
EXTT13=
EXTT14=
EXTT15=
EXTT16=
EXTT17=
EXTT18=
PLAYORDER=
